<svg width="404" height="175" viewBox="0 0 404 175" fill="none" xmlns="http://www.w3.org/2000/svg">
<rect x="0.372314" y="0.0625" width="402.827" height="172.368" fill="#D6D3D1"/>
<rect x="2.1438" y="1.668" width="190.347" height="172.368" fill="#D6D3D1"/>
<path d="M154.815 79.6621V107.14C154.815 109.099 153.671 110.878 151.889 111.69L104.512 133.276C103.225 133.862 101.749 133.876 100.451 133.313L51.8608 112.258C50.0322 111.465 48.8488 109.665 48.8488 107.672C48.8488 96.7323 48.8488 79.9513 48.8488 80.7051M154.815 79.6621L168.226 73.1805M154.815 79.6621L129.229 92.0293L105.716 103.394C104.4 104.03 102.871 104.059 101.533 103.472L31.681 72.8571C27.7118 71.1175 27.6843 65.4964 31.6363 63.718L99.8188 33.0363C101.101 32.4592 102.568 32.4488 103.858 33.0078L171.619 62.3597C175.546 64.0606 175.66 69.5873 171.807 71.4495L168.226 73.1805M168.226 73.1805V110.953M168.226 110.953L161.615 123.42C160.769 125.015 160.849 126.942 161.824 128.462L165.689 134.487C167.749 137.698 172.501 137.512 174.304 134.151L177.227 128.701C178.115 127.045 178 125.03 176.928 123.486L168.226 110.953Z" stroke="#879797" stroke-width="5"/>
<path d="M30.5845 111.006V84.6594C30.5845 82.7315 29.476 80.9753 27.7357 80.1458L18.0791 75.5435L44.7353 87.6127" stroke="#77716C" stroke-width="5"/>
<path d="M37.8186 89.5866V115.912C37.8186 117.958 39.0652 119.797 40.9656 120.555L56.1483 126.614" stroke="#4B5959" stroke-width="5"/>
<path d="M222.975 68.0781V22.6381H227.455V64.1101H253.695V68.0781H222.975ZM273.042 68.7181C270.652 68.7181 268.434 68.2701 266.386 67.3741C264.338 66.4354 262.567 65.1768 261.074 63.5981C259.58 61.9768 258.407 60.1208 257.554 58.0301C256.743 55.9394 256.338 53.6994 256.338 51.3101C256.338 48.1954 257.042 45.3368 258.45 42.7341C259.9 40.1314 261.884 38.0621 264.402 36.5261C266.919 34.9474 269.778 34.1581 272.978 34.1581C276.263 34.1581 279.122 34.9474 281.554 36.5261C284.028 38.1048 285.97 40.1954 287.378 42.7981C288.786 45.3581 289.49 48.1741 289.49 51.2461C289.49 51.5874 289.49 51.9288 289.49 52.2701C289.49 52.5688 289.468 52.8034 289.426 52.9741H260.882C261.095 55.3634 261.756 57.4968 262.866 59.3741C264.018 61.2088 265.49 62.6808 267.282 63.7901C269.116 64.8568 271.1 65.3901 273.234 65.3901C275.41 65.3901 277.458 64.8354 279.378 63.7261C281.34 62.6168 282.706 61.1661 283.474 59.3741L287.25 60.3981C286.567 61.9768 285.522 63.4061 284.114 64.6861C282.706 65.9661 281.042 66.9688 279.122 67.6941C277.244 68.3768 275.218 68.7181 273.042 68.7181ZM260.754 49.8381H285.394C285.223 47.4061 284.562 45.2728 283.41 43.4381C282.3 41.6034 280.828 40.1741 278.994 39.1501C277.202 38.0834 275.218 37.5501 273.042 37.5501C270.866 37.5501 268.882 38.0834 267.09 39.1501C265.298 40.1741 263.826 41.6248 262.674 43.5021C261.564 45.3368 260.924 47.4488 260.754 49.8381ZM310.668 68.7181C308.236 68.7181 305.996 68.2701 303.948 67.3741C301.943 66.4354 300.172 65.1554 298.636 63.5341C297.143 61.9128 295.97 60.0568 295.116 57.9661C294.306 55.8754 293.9 53.6568 293.9 51.3101C293.9 48.1528 294.604 45.2728 296.012 42.6701C297.42 40.0674 299.383 37.9981 301.9 36.4621C304.418 34.9261 307.319 34.1581 310.604 34.1581C313.719 34.1581 316.471 34.8834 318.86 36.3341C321.25 37.7421 323.02 39.6621 324.172 42.0941L319.948 43.4381C319.01 41.7314 317.687 40.4088 315.98 39.4701C314.316 38.4888 312.46 37.9981 310.412 37.9981C308.194 37.9981 306.167 38.5741 304.332 39.7261C302.498 40.8781 301.026 42.4568 299.916 44.4621C298.85 46.4674 298.316 48.7501 298.316 51.3101C298.316 53.8274 298.871 56.1101 299.98 58.1581C301.09 60.2061 302.562 61.8488 304.396 63.0861C306.231 64.2808 308.258 64.8781 310.476 64.8781C311.927 64.8781 313.314 64.6221 314.636 64.1101C316.002 63.5981 317.175 62.9154 318.156 62.0621C319.18 61.1661 319.863 60.2061 320.204 59.1821L324.492 60.4621C323.895 62.0408 322.892 63.4701 321.484 64.7501C320.119 65.9874 318.498 66.9688 316.62 67.6941C314.786 68.3768 312.802 68.7181 310.668 68.7181ZM238.079 141.478C237.738 141.606 237.205 141.841 236.479 142.182C235.754 142.523 234.879 142.822 233.855 143.078C232.831 143.334 231.722 143.462 230.527 143.462C229.29 143.462 228.117 143.227 227.007 142.758C225.941 142.289 225.087 141.585 224.447 140.646C223.807 139.665 223.487 138.47 223.487 137.062V113.19H218.879V109.734H223.487V98.4701H227.839V109.734H235.519V113.19H227.839V135.846C227.925 137.041 228.351 137.937 229.119 138.534C229.93 139.131 230.847 139.43 231.871 139.43C233.066 139.43 234.154 139.238 235.135 138.854C236.117 138.427 236.714 138.129 236.927 137.958L238.079 141.478ZM243.197 129.318V109.734H247.549V128.55C247.549 132.347 248.189 135.185 249.469 137.062C250.791 138.939 252.733 139.878 255.293 139.878C256.999 139.878 258.642 139.515 260.221 138.79C261.842 138.022 263.271 136.955 264.509 135.59C265.746 134.182 266.685 132.561 267.325 130.726V109.734H271.677V137.83C271.677 138.427 271.805 138.875 272.061 139.174C272.317 139.43 272.701 139.579 273.213 139.622V143.078C272.701 143.121 272.295 143.142 271.997 143.142C271.698 143.185 271.421 143.206 271.165 143.206C270.311 143.121 269.565 142.779 268.925 142.182C268.327 141.585 268.007 140.859 267.965 140.006L267.837 135.526C266.386 138.086 264.402 140.091 261.885 141.542C259.41 142.993 256.722 143.718 253.821 143.718C250.322 143.718 247.677 142.502 245.885 140.07C244.093 137.638 243.197 134.054 243.197 129.318ZM279.277 126.502C279.277 123.345 279.917 120.465 281.197 117.862C282.519 115.217 284.333 113.105 286.637 111.526C288.941 109.947 291.565 109.158 294.509 109.158C297.282 109.158 299.757 109.905 301.933 111.398C304.151 112.849 305.879 114.619 307.117 116.71V96.3581H311.469V137.83C311.469 138.427 311.597 138.875 311.853 139.174C312.109 139.43 312.493 139.579 313.005 139.622V143.078C312.151 143.206 311.49 143.249 311.021 143.206C310.125 143.163 309.335 142.801 308.653 142.118C307.97 141.435 307.629 140.689 307.629 139.878V136.614C306.306 138.79 304.514 140.518 302.253 141.798C299.991 143.078 297.645 143.718 295.213 143.718C292.909 143.718 290.775 143.249 288.813 142.31C286.893 141.371 285.207 140.091 283.757 138.47C282.349 136.849 281.239 135.014 280.429 132.966C279.661 130.875 279.277 128.721 279.277 126.502ZM307.117 131.622V121.318C306.562 119.782 305.666 118.395 304.429 117.158C303.191 115.878 301.783 114.875 300.205 114.15C298.669 113.382 297.133 112.998 295.597 112.998C293.805 112.998 292.183 113.382 290.733 114.15C289.282 114.875 288.023 115.878 286.957 117.158C285.933 118.438 285.143 119.889 284.589 121.51C284.034 123.131 283.757 124.795 283.757 126.502C283.757 128.294 284.055 130.001 284.653 131.622C285.293 133.243 286.189 134.694 287.341 135.974C288.493 137.211 289.815 138.171 291.309 138.854C292.802 139.537 294.423 139.878 296.173 139.878C297.282 139.878 298.434 139.665 299.629 139.238C300.823 138.811 301.954 138.235 303.021 137.51C304.13 136.742 305.047 135.846 305.773 134.822C306.498 133.798 306.946 132.731 307.117 131.622ZM323.249 153.318C323.847 153.361 324.423 153.382 324.977 153.382C325.532 153.425 325.937 153.403 326.193 153.318C326.705 153.233 327.196 152.934 327.665 152.422C328.135 151.91 328.689 150.929 329.329 149.478C329.969 148.027 330.865 145.894 332.017 143.078L317.489 109.734H322.097L334.321 138.598L345.585 109.734H349.937L332.657 152.742C332.359 153.553 331.911 154.299 331.313 154.982C330.716 155.707 329.969 156.262 329.073 156.646C328.22 157.073 327.153 157.307 325.873 157.35C325.489 157.393 325.084 157.393 324.657 157.35C324.273 157.35 323.804 157.307 323.249 157.222V153.318Z" fill="black"/>
</svg>
